<svg xmlns="http://www.w3.org/2000/svg" xmlns:xlink="http://www.w3.org/1999/xlink" width="500" zoomAndPan="magnify" viewBox="0 0 375 374.999991" height="500" preserveAspectRatio="xMidYMid meet" version="1.0"><defs><clipPath id="1519f989b2"><path d="M 198 244 L 368 244 L 368 368 L 198 368 Z M 198 244 " clip-rule="nonzero"/></clipPath><clipPath id="56ae4c879c"><path d="M 226.972656 504.289062 L -129.410156 147.90625 L 147.953125 -129.457031 L 504.335938 226.925781 Z M 226.972656 504.289062 " clip-rule="nonzero"/></clipPath><clipPath id="ab31760e74"><path d="M 226.972656 504.289062 L -129.410156 147.90625 L 147.953125 -129.457031 L 504.335938 226.925781 Z M 226.972656 504.289062 " clip-rule="nonzero"/></clipPath><clipPath id="12a69b7e57"><path d="M 245 86 L 368 86 L 368 210 L 245 210 Z M 245 86 " clip-rule="nonzero"/></clipPath><clipPath id="99df2c3c74"><path d="M 226.972656 504.289062 L -129.410156 147.90625 L 147.953125 -129.457031 L 504.335938 226.925781 Z M 226.972656 504.289062 " clip-rule="nonzero"/></clipPath><clipPath id="7766d3c024"><path d="M 226.972656 504.289062 L -129.410156 147.90625 L 147.953125 -129.457031 L 504.335938 226.925781 Z M 226.972656 504.289062 " clip-rule="nonzero"/></clipPath><clipPath id="d962a80f63"><path d="M 166 165 L 289 165 L 289 289 L 166 289 Z M 166 165 " clip-rule="nonzero"/></clipPath><clipPath id="e75a5271dc"><path d="M 226.972656 504.289062 L -129.410156 147.90625 L 147.953125 -129.457031 L 504.335938 226.925781 Z M 226.972656 504.289062 " clip-rule="nonzero"/></clipPath><clipPath id="9563df9a63"><path d="M 226.972656 504.289062 L -129.410156 147.90625 L 147.953125 -129.457031 L 504.335938 226.925781 Z M 226.972656 504.289062 " clip-rule="nonzero"/></clipPath><clipPath id="0811d6992f"><path d="M 166 86 L 289 86 L 289 210 L 166 210 Z M 166 86 " clip-rule="nonzero"/></clipPath><clipPath id="de367980b3"><path d="M 226.972656 504.289062 L -129.410156 147.90625 L 147.953125 -129.457031 L 504.335938 226.925781 Z M 226.972656 504.289062 " clip-rule="nonzero"/></clipPath><clipPath id="720be92c5c"><path d="M 226.972656 504.289062 L -129.410156 147.90625 L 147.953125 -129.457031 L 504.335938 226.925781 Z M 226.972656 504.289062 " clip-rule="nonzero"/></clipPath><clipPath id="b2bf0ea917"><path d="M 166 7 L 289 7 L 289 131 L 166 131 Z M 166 7 " clip-rule="nonzero"/></clipPath><clipPath id="fe81587a48"><path d="M 226.972656 504.289062 L -129.410156 147.90625 L 147.953125 -129.457031 L 504.335938 226.925781 Z M 226.972656 504.289062 " clip-rule="nonzero"/></clipPath><clipPath id="b630e423ac"><path d="M 226.972656 504.289062 L -129.410156 147.90625 L 147.953125 -129.457031 L 504.335938 226.925781 Z M 226.972656 504.289062 " clip-rule="nonzero"/></clipPath><clipPath id="64be011ee2"><path d="M 87 244 L 210 244 L 210 368 L 87 368 Z M 87 244 " clip-rule="nonzero"/></clipPath><clipPath id="0bccf86847"><path d="M 226.972656 504.289062 L -129.410156 147.90625 L 147.953125 -129.457031 L 504.335938 226.925781 Z M 226.972656 504.289062 " clip-rule="nonzero"/></clipPath><clipPath id="c3cdc19231"><path d="M 226.972656 504.289062 L -129.410156 147.90625 L 147.953125 -129.457031 L 504.335938 226.925781 Z M 226.972656 504.289062 " clip-rule="nonzero"/></clipPath><clipPath id="a5ed231439"><path d="M 87 197 L 178 197 L 178 289 L 87 289 Z M 87 197 " clip-rule="nonzero"/></clipPath><clipPath id="04184556dc"><path d="M 226.972656 504.289062 L -129.410156 147.90625 L 147.953125 -129.457031 L 504.335938 226.925781 Z M 226.972656 504.289062 " clip-rule="nonzero"/></clipPath><clipPath id="b829abd86e"><path d="M 226.972656 504.289062 L -129.410156 147.90625 L 147.953125 -129.457031 L 504.335938 226.925781 Z M 226.972656 504.289062 " clip-rule="nonzero"/></clipPath><clipPath id="85acd06398"><path d="M 87 86 L 210 86 L 210 210 L 87 210 Z M 87 86 " clip-rule="nonzero"/></clipPath><clipPath id="5e2912354e"><path d="M 226.972656 504.289062 L -129.410156 147.90625 L 147.953125 -129.457031 L 504.335938 226.925781 Z M 226.972656 504.289062 " clip-rule="nonzero"/></clipPath><clipPath id="6b78ebc3d6"><path d="M 226.972656 504.289062 L -129.410156 147.90625 L 147.953125 -129.457031 L 504.335938 226.925781 Z M 226.972656 504.289062 " clip-rule="nonzero"/></clipPath><clipPath id="66205d72aa"><path d="M 8 165 L 131 165 L 131 288 L 8 288 Z M 8 165 " clip-rule="nonzero"/></clipPath><clipPath id="1bb183cb02"><path d="M 226.972656 504.289062 L -129.410156 147.90625 L 147.953125 -129.457031 L 504.335938 226.925781 Z M 226.972656 504.289062 " clip-rule="nonzero"/></clipPath><clipPath id="7e7ebe924a"><path d="M 226.972656 504.289062 L -129.410156 147.90625 L 147.953125 -129.457031 L 504.335938 226.925781 Z M 226.972656 504.289062 " clip-rule="nonzero"/></clipPath><clipPath id="f6f9fd6058"><path d="M 8 7 L 137 7 L 137 131 L 8 131 Z M 8 7 " clip-rule="nonzero"/></clipPath><clipPath id="6b67573403"><path d="M 226.972656 504.289062 L -129.410156 147.90625 L 147.953125 -129.457031 L 504.335938 226.925781 Z M 226.972656 504.289062 " clip-rule="nonzero"/></clipPath><clipPath id="5b985e41f4"><path d="M 226.972656 504.289062 L -129.410156 147.90625 L 147.953125 -129.457031 L 504.335938 226.925781 Z M 226.972656 504.289062 " clip-rule="nonzero"/></clipPath></defs><rect x="-37.5" width="450" fill="#ffffff" y="-37.499999" height="449.999989" fill-opacity="1"/><rect x="-37.5" width="450" fill="#003b65" y="-37.499999" height="449.999989" fill-opacity="1"/><g clip-path="url(#1519f989b2)"><g clip-path="url(#56ae4c879c)"><g clip-path="url(#ab31760e74)"><path fill="#ffde59" d="M 324.265625 323.871094 L 324.265625 288.144531 L 288.535156 288.144531 L 288.535156 323.871094 Z M 365.824219 246.585938 C 366.871094 247.628906 367.515625 249.074219 367.519531 250.671875 L 367.519531 361.34375 C 367.519531 362.878906 366.90625 364.347656 365.824219 365.429688 C 364.738281 366.519531 363.273438 367.125 361.734375 367.128906 L 251.0625 367.125 C 247.871094 367.125 245.285156 364.535156 245.28125 361.34375 L 245.28125 288.144531 L 244.433594 288.144531 C 241.242188 288.144531 238.652344 285.554688 238.652344 282.363281 C 238.652344 279.167969 241.238281 276.582031 244.4375 276.582031 L 330.046875 276.582031 C 333.238281 276.582031 335.824219 279.171875 335.828125 282.363281 L 335.828125 329.65625 C 335.828125 331.1875 335.21875 332.660156 334.136719 333.742188 C 333.050781 334.828125 331.582031 335.4375 330.046875 335.4375 L 282.753906 335.4375 C 279.5625 335.433594 276.972656 332.847656 276.972656 329.65625 L 276.972656 288.144531 L 256.84375 288.144531 L 256.847656 355.5625 L 355.957031 355.5625 L 355.953125 256.453125 L 203.792969 256.457031 C 200.601562 256.453125 198.015625 253.867188 198.011719 250.675781 C 198.015625 247.476562 200.601562 244.890625 203.792969 244.894531 L 361.734375 244.894531 C 363.332031 244.890625 364.777344 245.539062 365.824219 246.585938 " fill-opacity="1" fill-rule="nonzero"/></g></g></g><g clip-path="url(#12a69b7e57)"><g clip-path="url(#99df2c3c74)"><g clip-path="url(#7766d3c024)"><path fill="#ffde59" d="M 255.179688 120.324219 C 256.226562 121.367188 256.875 122.8125 256.871094 124.410156 L 256.871094 203.386719 C 256.871094 206.578125 254.28125 209.167969 251.089844 209.164062 C 247.898438 209.164062 245.308594 206.578125 245.308594 203.382812 L 245.3125 124.410156 C 245.308594 121.21875 247.898438 118.628906 251.089844 118.632812 C 252.691406 118.628906 254.132812 119.277344 255.179688 120.324219 Z M 324.289062 165.910156 L 324.292969 130.183594 L 288.5625 130.183594 L 288.5625 165.914062 Z M 334.164062 120.3125 C 335.25 121.394531 335.855469 122.867188 335.855469 124.402344 L 335.851562 171.695312 C 335.855469 174.886719 333.265625 177.476562 330.070312 177.476562 L 282.777344 177.476562 C 279.714844 177.476562 276.996094 174.761719 276.996094 171.695312 L 276.996094 124.402344 C 277 121.210938 279.589844 118.621094 282.777344 118.621094 L 330.074219 118.621094 C 331.609375 118.617188 333.078125 119.226562 334.164062 120.3125 Z M 365.851562 88.625 C 366.9375 89.707031 367.546875 91.175781 367.546875 92.710938 L 367.539062 203.382812 C 367.542969 206.574219 364.953125 209.164062 361.761719 209.167969 L 282.8125 209.175781 C 279.621094 209.175781 277.03125 206.585938 277.03125 203.394531 C 277.03125 200.199219 279.617188 197.609375 282.8125 197.609375 L 355.980469 197.601562 L 355.984375 98.492188 L 251.085938 98.492188 C 247.894531 98.492188 245.308594 95.90625 245.308594 92.714844 C 245.304688 89.519531 247.894531 86.929688 251.089844 86.929688 L 361.765625 86.929688 C 363.296875 86.929688 364.765625 87.539062 365.851562 88.625 " fill-opacity="1" fill-rule="nonzero"/></g></g></g><g clip-path="url(#d962a80f63)"><g clip-path="url(#e75a5271dc)"><g clip-path="url(#9563df9a63)"><path fill="#ffde59" d="M 176.195312 199.277344 C 177.242188 200.324219 177.886719 201.765625 177.886719 203.363281 L 177.886719 282.378906 C 177.886719 285.570312 175.296875 288.160156 172.101562 288.160156 C 168.910156 288.160156 166.324219 285.570312 166.324219 282.375 L 166.328125 203.363281 C 166.324219 200.167969 168.914062 197.578125 172.109375 197.582031 C 173.703125 197.582031 175.148438 198.230469 176.195312 199.277344 Z M 286.867188 278.289062 C 287.914062 279.335938 288.558594 280.785156 288.558594 282.378906 C 288.5625 285.574219 285.972656 288.164062 282.777344 288.164062 L 203.765625 288.160156 C 200.574219 288.160156 197.984375 285.574219 197.984375 282.378906 C 197.984375 279.183594 200.570312 276.597656 203.765625 276.597656 L 282.777344 276.597656 C 284.375 276.597656 285.824219 277.246094 286.867188 278.289062 Z M 245.308594 244.910156 L 245.304688 209.175781 L 209.574219 209.175781 L 209.574219 244.90625 Z M 255.175781 199.304688 C 256.222656 200.351562 256.871094 201.796875 256.871094 203.394531 L 256.875 250.6875 C 256.875 252.222656 256.261719 253.695312 255.179688 254.777344 C 254.09375 255.863281 252.621094 256.472656 251.089844 256.472656 L 203.792969 256.46875 C 200.601562 256.46875 198.011719 253.882812 198.011719 250.6875 L 198.015625 203.394531 C 198.011719 200.203125 200.601562 197.613281 203.792969 197.617188 L 251.089844 197.613281 C 252.683594 197.613281 254.128906 198.261719 255.175781 199.304688 Z M 255.210938 167.621094 C 256.257812 168.667969 256.902344 170.113281 256.90625 171.707031 C 256.90625 174.898438 254.3125 177.492188 251.121094 177.492188 L 172.105469 177.492188 C 168.914062 177.488281 166.324219 174.902344 166.324219 171.707031 C 166.324219 168.515625 168.914062 165.925781 172.109375 165.921875 L 251.125 165.925781 C 252.71875 165.929688 254.164062 166.574219 255.210938 167.621094 Z M 286.867188 167.617188 C 287.914062 168.664062 288.558594 170.109375 288.558594 171.707031 L 288.5625 250.65625 C 288.5625 253.851562 285.972656 256.441406 282.777344 256.4375 C 279.582031 256.4375 276.996094 253.851562 276.996094 250.65625 L 276.996094 171.703125 C 276.996094 168.511719 279.585938 165.921875 282.777344 165.925781 C 284.371094 165.925781 285.820312 166.570312 286.867188 167.617188 " fill-opacity="1" fill-rule="nonzero"/></g></g></g><g clip-path="url(#0811d6992f)"><g clip-path="url(#de367980b3)"><g clip-path="url(#720be92c5c)"><path fill="#ffde59" d="M 255.179688 199.304688 C 256.226562 200.351562 256.871094 201.796875 256.871094 203.390625 C 256.871094 206.585938 254.28125 209.175781 251.089844 209.171875 L 172.140625 209.175781 C 168.949219 209.171875 166.359375 206.585938 166.359375 203.390625 C 166.359375 200.199219 168.949219 197.609375 172.140625 197.609375 L 251.089844 197.609375 C 252.6875 197.609375 254.132812 198.257812 255.179688 199.304688 Z M 245.34375 165.921875 L 245.34375 130.195312 L 209.613281 130.191406 L 209.613281 165.921875 Z M 255.210938 120.324219 C 256.253906 121.367188 256.90625 122.816406 256.90625 124.410156 L 256.90625 171.703125 C 256.90625 173.238281 256.296875 174.707031 255.214844 175.792969 C 254.128906 176.878906 252.65625 177.484375 251.125 177.484375 L 203.832031 177.484375 C 202.296875 177.484375 200.828125 176.875 199.746094 175.792969 C 198.65625 174.703125 198.046875 173.238281 198.046875 171.703125 L 198.046875 124.410156 C 198.046875 121.214844 200.636719 118.625 203.832031 118.628906 L 251.121094 118.628906 C 252.71875 118.632812 254.164062 119.277344 255.210938 120.324219 Z M 286.898438 120.3125 C 287.945312 121.359375 288.59375 122.804688 288.59375 124.402344 L 288.597656 175.609375 C 288.597656 178.804688 286.007812 181.394531 282.8125 181.390625 C 279.625 181.390625 277.035156 178.800781 277.03125 175.609375 L 277.027344 124.402344 C 277.03125 121.207031 279.617188 118.621094 282.8125 118.621094 C 284.40625 118.621094 285.851562 119.265625 286.898438 120.3125 Z M 286.902344 88.636719 C 287.945312 89.679688 288.59375 91.125 288.59375 92.722656 C 288.59375 95.917969 286.007812 98.503906 282.8125 98.503906 L 205.195312 98.503906 C 202.007812 98.503906 199.417969 95.917969 199.417969 92.722656 C 199.417969 89.523438 202.003906 86.9375 205.199219 86.9375 L 282.808594 86.941406 C 284.410156 86.941406 285.855469 87.589844 286.902344 88.636719 " fill-opacity="1" fill-rule="nonzero"/></g></g></g><g clip-path="url(#b2bf0ea917)"><g clip-path="url(#fe81587a48)"><g clip-path="url(#b630e423ac)"><path fill="#ffde59" d="M 245.3125 86.945312 L 245.308594 51.214844 L 209.582031 51.214844 L 209.574219 86.949219 Z M 255.179688 41.347656 C 256.226562 42.394531 256.871094 43.835938 256.871094 45.4375 L 256.875 92.726562 C 256.871094 95.921875 254.285156 98.507812 251.09375 98.507812 L 209.578125 98.511719 L 209.578125 118.632812 L 282.78125 118.632812 C 285.972656 118.632812 288.558594 121.222656 288.5625 124.414062 C 288.5625 127.609375 285.976562 130.199219 282.78125 130.195312 L 203.832031 130.199219 C 203.421875 130.199219 203.019531 130.152344 202.632812 130.074219 C 200 129.535156 198.015625 127.203125 198.011719 124.410156 L 198.015625 45.425781 C 198.015625 43.898438 198.621094 42.429688 199.710938 41.339844 C 200.789062 40.261719 202.261719 39.652344 203.792969 39.648438 L 251.09375 39.652344 C 252.6875 39.652344 254.132812 40.300781 255.179688 41.347656 Z M 286.867188 9.660156 C 287.914062 10.707031 288.558594 12.148438 288.558594 13.746094 L 288.558594 92.722656 C 288.5625 95.917969 285.976562 98.503906 282.777344 98.503906 C 279.585938 98.503906 277 95.914062 277 92.722656 L 276.996094 19.527344 L 177.890625 19.523438 L 177.886719 124.417969 C 177.886719 127.613281 175.300781 130.199219 172.105469 130.199219 C 168.914062 130.199219 166.328125 127.613281 166.324219 124.421875 L 166.328125 13.738281 C 166.324219 12.207031 166.933594 10.742188 168.023438 9.652344 C 169.101562 8.574219 170.574219 7.960938 172.105469 7.960938 L 282.78125 7.964844 C 284.375 7.964844 285.820312 8.613281 286.867188 9.660156 " fill-opacity="1" fill-rule="nonzero"/></g></g></g><g clip-path="url(#64be011ee2)"><g clip-path="url(#0bccf86847)"><g clip-path="url(#c3cdc19231)"><path fill="#ffde59" d="M 128.90625 246.5625 C 129.953125 247.609375 130.601562 249.054688 130.601562 250.652344 C 130.601562 253.847656 128.011719 256.4375 124.816406 256.433594 L 93.09375 256.4375 C 89.902344 256.4375 87.3125 253.847656 87.3125 250.65625 C 87.3125 247.464844 89.902344 244.875 93.09375 244.875 L 124.816406 244.875 C 126.414062 244.867188 127.859375 245.519531 128.90625 246.5625 Z M 166.292969 323.855469 L 166.292969 288.125 L 130.5625 288.125 L 130.5625 323.855469 Z M 176.164062 278.253906 C 177.25 279.335938 177.859375 280.808594 177.855469 282.34375 L 177.855469 329.636719 C 177.859375 332.832031 175.269531 335.421875 172.074219 335.417969 L 124.78125 335.417969 C 121.714844 335.417969 119 332.703125 119 329.636719 L 119 282.34375 C 119 279.152344 121.589844 276.5625 124.78125 276.5625 L 172.074219 276.5625 C 173.609375 276.5625 175.082031 277.167969 176.164062 278.253906 Z M 207.855469 246.5625 C 208.902344 247.609375 209.546875 249.054688 209.546875 250.652344 L 209.542969 361.328125 C 209.546875 362.859375 208.9375 364.328125 207.851562 365.414062 C 206.769531 366.5 205.296875 367.105469 203.765625 367.105469 L 93.09375 367.105469 C 89.902344 367.105469 87.3125 364.519531 87.3125 361.324219 L 87.3125 282.339844 C 87.3125 279.144531 89.898438 276.558594 93.09375 276.558594 C 96.285156 276.558594 98.875 279.148438 98.875 282.339844 L 98.875 355.542969 L 197.984375 355.542969 L 197.984375 250.652344 C 197.984375 247.457031 200.570312 244.871094 203.765625 244.871094 C 205.363281 244.871094 206.808594 245.515625 207.855469 246.5625 " fill-opacity="1" fill-rule="nonzero"/></g></g></g><g clip-path="url(#a5ed231439)"><g clip-path="url(#04184556dc)"><g clip-path="url(#b829abd86e)"><path fill="#ffde59" d="M 176.195312 278.25 C 177.242188 279.296875 177.886719 280.746094 177.886719 282.339844 C 177.890625 285.535156 175.300781 288.125 172.105469 288.121094 L 93.128906 288.121094 C 89.9375 288.117188 87.347656 285.53125 87.347656 282.339844 C 87.347656 279.144531 89.9375 276.558594 93.132812 276.558594 L 172.109375 276.558594 C 173.703125 276.558594 175.152344 277.207031 176.195312 278.25 Z M 166.328125 244.871094 L 166.332031 209.140625 L 130.601562 209.140625 L 130.601562 244.871094 Z M 176.199219 199.269531 C 177.246094 200.316406 177.894531 201.761719 177.894531 203.355469 L 177.890625 250.652344 C 177.894531 253.84375 175.304688 256.433594 172.113281 256.433594 L 124.816406 256.433594 C 121.75 256.4375 119.035156 253.722656 119.035156 250.652344 L 119.035156 203.355469 C 119.035156 200.167969 121.625 197.578125 124.816406 197.578125 L 172.113281 197.578125 C 173.707031 197.578125 175.152344 198.226562 176.199219 199.269531 " fill-opacity="1" fill-rule="nonzero"/></g></g></g><g clip-path="url(#85acd06398)"><g clip-path="url(#5e2912354e)"><g clip-path="url(#6b78ebc3d6)"><path fill="#ffde59" d="M 97.183594 120.148438 C 98.230469 121.199219 98.875 122.640625 98.875 124.242188 L 98.875 203.363281 C 98.875 206.558594 96.289062 209.144531 93.09375 209.144531 C 89.902344 209.144531 87.3125 206.5625 87.3125 203.367188 L 87.3125 124.238281 C 87.3125 121.050781 89.902344 118.460938 93.09375 118.460938 C 94.695312 118.460938 96.140625 119.105469 97.183594 120.148438 Z M 166.296875 165.894531 L 166.296875 130.160156 L 130.5625 130.164062 L 130.5625 165.894531 Z M 176.167969 120.292969 C 177.214844 121.339844 177.859375 122.785156 177.859375 124.378906 L 177.859375 171.675781 C 177.859375 174.871094 175.273438 177.457031 172.078125 177.457031 L 124.785156 177.457031 C 121.714844 177.457031 119 174.742188 119 171.679688 L 119 124.382812 C 119 122.847656 119.609375 121.375 120.691406 120.292969 C 121.777344 119.203125 123.25 118.597656 124.785156 118.597656 L 172.082031 118.597656 C 173.675781 118.597656 175.121094 119.246094 176.167969 120.292969 Z M 176.230469 88.601562 C 177.277344 89.648438 177.925781 91.09375 177.925781 92.6875 C 177.925781 95.886719 175.335938 98.472656 172.140625 98.472656 L 93.097656 98.472656 C 89.902344 98.472656 87.3125 95.886719 87.316406 92.691406 C 87.3125 89.5 89.902344 86.910156 93.097656 86.910156 L 172.144531 86.90625 C 173.738281 86.910156 175.183594 87.554688 176.230469 88.601562 Z M 207.859375 88.601562 C 208.902344 89.648438 209.546875 91.097656 209.546875 92.691406 L 209.546875 171.703125 C 209.546875 174.898438 206.957031 177.488281 203.761719 177.488281 C 200.574219 177.480469 197.984375 174.898438 197.984375 171.703125 L 197.988281 92.691406 C 197.984375 89.5 200.574219 86.910156 203.769531 86.910156 C 205.363281 86.910156 206.8125 87.554688 207.859375 88.601562 " fill-opacity="1" fill-rule="nonzero"/></g></g></g><g clip-path="url(#66205d72aa)"><g clip-path="url(#1bb183cb02)"><g clip-path="url(#7e7ebe924a)"><path fill="#ffde59" d="M 87.347656 244.730469 L 87.347656 209 L 51.617188 209 L 51.617188 244.730469 Z M 97.21875 199.128906 C 98.304688 200.214844 98.914062 201.683594 98.914062 203.21875 L 98.914062 250.515625 C 98.914062 253.707031 96.324219 256.292969 93.132812 256.292969 L 45.835938 256.292969 C 42.769531 256.296875 40.054688 253.582031 40.054688 250.515625 L 40.054688 203.21875 C 40.054688 200.027344 42.644531 197.4375 45.835938 197.4375 L 93.132812 197.4375 C 94.664062 197.433594 96.132812 198.046875 97.21875 199.128906 Z M 97.21875 167.441406 C 98.265625 168.488281 98.914062 169.933594 98.914062 171.53125 C 98.914062 174.726562 96.324219 177.3125 93.128906 177.3125 L 19.929688 177.3125 L 19.929688 276.421875 L 124.820312 276.421875 C 128.011719 276.417969 130.601562 279.007812 130.601562 282.199219 C 130.601562 285.394531 128.011719 287.984375 124.820312 287.980469 L 14.144531 287.984375 C 11.082031 287.984375 8.367188 285.269531 8.367188 282.203125 L 8.367188 171.53125 C 8.367188 170 8.976562 168.523438 10.058594 167.441406 C 11.144531 166.355469 12.617188 165.746094 14.148438 165.75 L 93.132812 165.75 C 94.726562 165.75 96.171875 166.398438 97.21875 167.441406 Z M 128.90625 167.441406 C 129.953125 168.488281 130.601562 169.933594 130.601562 171.53125 L 130.601562 250.65625 C 130.601562 253.847656 128.011719 256.4375 124.820312 256.4375 C 121.625 256.433594 119.039062 253.847656 119.035156 250.652344 L 119.035156 171.53125 C 119.035156 168.335938 121.625 165.75 124.820312 165.75 C 126.414062 165.75 127.859375 166.398438 128.90625 167.441406 " fill-opacity="1" fill-rule="nonzero"/></g></g></g><g clip-path="url(#f6f9fd6058)"><g clip-path="url(#6b67573403)"><g clip-path="url(#5b985e41f4)"><path fill="#ffde59" d="M 87.351562 86.769531 L 87.351562 51.039062 L 51.621094 51.039062 L 51.621094 86.769531 Z M 97.222656 41.171875 C 98.265625 42.214844 98.917969 43.664062 98.917969 45.257812 L 98.917969 92.554688 C 98.917969 94.085938 98.308594 95.554688 97.222656 96.640625 C 96.140625 97.722656 94.667969 98.332031 93.136719 98.332031 L 45.839844 98.332031 C 42.644531 98.332031 40.0625 95.746094 40.058594 92.550781 L 40.058594 45.253906 C 40.058594 42.066406 42.648438 39.476562 45.839844 39.476562 L 93.136719 39.476562 C 94.730469 39.476562 96.175781 40.125 97.222656 41.171875 Z M 128.910156 9.480469 C 129.957031 10.523438 130.605469 11.972656 130.605469 13.570312 L 130.605469 92.691406 C 130.601562 95.882812 128.015625 98.46875 124.824219 98.476562 C 121.628906 98.472656 119.042969 95.886719 119.042969 92.695312 L 119.039062 19.351562 L 19.929688 19.351562 L 19.933594 118.457031 L 131.179688 118.457031 C 134.371094 118.464844 136.957031 121.046875 136.957031 124.238281 C 136.957031 127.433594 134.371094 130.019531 131.175781 130.019531 L 14.152344 130.023438 C 12.617188 130.015625 11.152344 129.410156 10.066406 128.328125 C 8.980469 127.242188 8.371094 125.769531 8.371094 124.242188 L 8.375 13.570312 C 8.367188 10.375 10.957031 7.785156 14.152344 7.789062 L 124.824219 7.789062 C 126.421875 7.785156 127.867188 8.433594 128.910156 9.480469 " fill-opacity="1" fill-rule="nonzero"/></g></g></g></svg>