<svg width="26" height="26" viewBox="0 0 26 26" fill="none" xmlns="http://www.w3.org/2000/svg">
<path d="M22.9608 7.16342V6.80775C22.9608 5.17274 21.6306 3.84253 19.9956 3.84253H2.96522C1.33016 3.84258 0 5.17274 0 6.80775V7.16342H22.9608Z" fill="#1E3F65"/>
<path d="M13.5651 16.7017C13.5651 15.1636 14.0598 13.7017 14.9731 12.4968H0V16.6331C0 18.2681 1.33016 19.5983 2.96522 19.5983H14.1911C13.7813 18.7007 13.5651 17.7179 13.5651 16.7017ZM11.4804 15.803H8.92125V14.2796H11.4804V15.803ZM3.41545 14.2796H7.39781V15.803H3.41545V14.2796Z" fill="#1E3F65"/>
<path d="M16.5547 10.9734C17.7165 10.1606 19.0967 9.72262 20.5443 9.72262C21.3822 9.72262 22.1973 9.86974 22.9608 10.1509V8.68689H0V10.9734H16.5547Z" fill="#1E3F65"/>
<circle cx="20.455" cy="16.455" r="5.455" fill="#1E3F65"/>
<g clip-path="url(#clip0_5_162)">
<path d="M18.8921 13.2937C18.7719 13.1154 18.5468 13.0347 18.3388 13.0971C18.1307 13.1596 17.9889 13.3486 17.9889 13.5635V16.4895H17.4957C17.2228 16.4895 17.0024 16.7074 17.0024 16.9772C17.0024 17.2469 17.2228 17.4648 17.4957 17.4648H17.9889V19.4155C17.9889 19.6853 18.2093 19.9032 18.4821 19.9032C18.7549 19.9032 18.9753 19.6853 18.9753 19.4155V17.4648H20.5197L22.0179 19.6868C22.1381 19.8651 22.3631 19.9459 22.5712 19.8834C22.7793 19.8209 22.9211 19.6319 22.9211 19.417V17.4648H23.4143C23.6871 17.4648 23.9075 17.2469 23.9075 16.9772C23.9075 16.7074 23.6871 16.4895 23.4143 16.4895H22.9211V13.5635C22.9211 13.2937 22.7007 13.0758 22.4278 13.0758C22.155 13.0758 21.9346 13.2937 21.9346 13.5635V16.4895H21.0484L18.8921 13.2937ZM21.705 17.4648H21.9346V17.8047L21.705 17.4648ZM19.8616 16.4895H18.9753V15.1743L19.8616 16.4895Z" fill="white"/>
</g>
<defs>
<clipPath id="clip0_5_162">
<rect width="6.90506" height="7.80272" fill="white" transform="translate(17.0024 12.5881)"/>
</clipPath>
</defs>
</svg>
