<svg width="25" height="22" viewBox="0 0 25 22" fill="none" xmlns="http://www.w3.org/2000/svg">
<path d="M6.73089 10.5771C6.73089 10.3221 6.8322 10.0775 7.01252 9.89719C7.19285 9.71686 7.43742 9.61556 7.69244 9.61556H16.3464V3.36544C16.3464 1.44233 14.3158 0 12.5002 0H3.36544C2.47317 0.000954479 1.61771 0.355834 0.98677 0.98677C0.355834 1.61771 0.00095448 2.47317 0 3.36544V17.7888C0.00095448 18.6811 0.355834 19.5365 0.98677 20.1675C1.61771 20.7984 2.47317 21.1533 3.36544 21.1542H12.981C13.8733 21.1533 14.7287 20.7984 15.3597 20.1675C15.9906 19.5365 16.3455 18.6811 16.3464 17.7888V11.5387H7.69244C7.43742 11.5387 7.19285 11.4374 7.01252 11.257C6.8322 11.0767 6.73089 10.8321 6.73089 10.5771ZM24.7186 9.89741L19.9108 5.08963C19.729 4.91692 19.4869 4.82205 19.2362 4.82526C18.9855 4.82847 18.7459 4.92951 18.5686 5.10682C18.3913 5.28413 18.2903 5.52369 18.287 5.77443C18.2838 6.02517 18.3787 6.26724 18.5514 6.44903L21.7173 9.61556H16.3464V11.5387H21.7173L18.5514 14.7052C18.4584 14.7936 18.384 14.8997 18.3326 15.0173C18.2812 15.1349 18.2539 15.2617 18.2522 15.39C18.2506 15.5183 18.2747 15.6457 18.323 15.7646C18.3714 15.8835 18.443 15.9915 18.5338 16.0822C18.6245 16.173 18.7325 16.2446 18.8514 16.293C18.9703 16.3414 19.0977 16.3654 19.226 16.3638C19.3543 16.3621 19.4811 16.3348 19.5987 16.2834C19.7163 16.232 19.8224 16.1576 19.9108 16.0646L24.7186 11.2568C24.8988 11.0765 25 10.832 25 10.5771C25 10.3222 24.8988 10.0777 24.7186 9.89741Z" fill="#B1B1B1"/>
</svg>
