<svg width="25" height="25" viewBox="0 0 25 25" fill="none" xmlns="http://www.w3.org/2000/svg">
<g clip-path="url(#clip0_5_153)">
<path d="M18.2291 17.5208L20.7708 18.9895L19.9896 20.3437L16.6666 18.427V14.5833H18.2291V17.5208ZM25 17.7083C25 21.7395 21.7396 25 17.7083 25C13.6771 25 10.4166 21.7395 10.4166 17.7083C10.4166 17.3541 10.4479 17.0104 10.5 16.6666H2.08331V4.16663H20.8333V11.125C23.2916 12.302 25 14.802 25 17.7083ZM11.125 14.5833C11.3125 14.2083 11.5104 13.8541 11.75 13.5104C11.6562 13.5416 11.5625 13.5416 11.4583 13.5416C9.72915 13.5416 8.33331 12.1458 8.33331 10.4166C8.33331 8.68746 9.72915 7.29163 11.4583 7.29163C13.1875 7.29163 14.5833 8.68746 14.5833 10.4166C14.5833 10.677 14.5416 10.9375 14.4791 11.177C15.4583 10.6979 16.5521 10.4166 17.7083 10.4166C18.0625 10.4166 18.4062 10.4479 18.75 10.5V8.33329C18.1974 8.33329 17.6675 8.1138 17.2768 7.7231C16.8861 7.3324 16.6666 6.80249 16.6666 6.24996H6.24998C6.24998 7.40621 5.3229 8.33329 4.16665 8.33329V12.5C4.71918 12.5 5.24908 12.7195 5.63979 13.1102C6.03049 13.5009 6.24998 14.0308 6.24998 14.5833H11.125ZM22.9166 17.7083C22.9166 14.8333 20.5833 12.5 17.7083 12.5C14.8333 12.5 12.5 14.8333 12.5 17.7083C12.5 20.5833 14.8333 22.9166 17.7083 22.9166C20.5833 22.9166 22.9166 20.5833 22.9166 17.7083Z" fill="#B1B1B1"/>
</g>
<defs>
<clipPath id="clip0_5_153">
<rect width="25" height="25" fill="white"/>
</clipPath>
</defs>
</svg>
