<svg width="32" height="30" viewBox="0 0 32 30" fill="none" xmlns="http://www.w3.org/2000/svg">
<path d="M26.0717 0C24.3229 0 22.9052 1.39102 22.9052 3.10693V12.3773H28.3425C28.8372 12.3773 29.2382 11.9838 29.2382 11.4984V3.10693C29.2382 1.39102 27.8205 0 26.0717 0V0Z" fill="#97539C"/>
<path d="M11.2879 22.0898C11.2879 16.7805 15.6897 12.4076 21.1733 12.4223V3.48551C21.1733 2.14857 21.6863 0.927129 22.5288 0H6.7296C4.26088 0 2.25198 1.97109 2.25198 4.39336V29.1053C2.25198 29.8959 3.23774 30.2844 3.79508 29.7129L4.94106 28.5387L6.15153 29.727C6.50088 30.0697 7.0682 30.0697 7.41814 29.727L8.56531 28.602L9.72383 29.7293C10.0732 30.0691 10.6363 30.0691 10.9857 29.7293L12.1627 28.5844L13.3403 29.7293C13.6891 30.0691 14.2516 30.0691 14.601 29.7299L14.8291 29.5084C12.6081 27.6864 11.2879 24.9923 11.2879 22.0898ZM9.49846 7.08984H11.2663V5.35523C11.2663 4.86984 11.6674 4.47633 12.1621 4.47633C12.6568 4.47633 13.0579 4.86984 13.0579 5.35523V7.08984H14.8257C15.3204 7.08984 15.7215 7.48336 15.7215 7.96875C15.7215 8.45414 15.3204 8.84766 14.8257 8.84766H13.0579V10.5823C13.0579 11.0677 12.6568 11.4612 12.1621 11.4612C11.6674 11.4612 11.2663 11.0677 11.2663 10.5823V8.84766H9.49846C9.00376 8.84766 8.6027 8.45414 8.6027 7.96875C8.6027 7.48336 9.00376 7.08984 9.49846 7.08984ZM6.78747 13.2451H12.819C13.3137 13.2451 13.7148 13.6386 13.7148 14.124C13.7148 14.6094 13.3137 15.0029 12.819 15.0029H6.78747C6.29277 15.0029 5.8917 14.6094 5.8917 14.124C5.8917 13.6386 6.29277 13.2451 6.78747 13.2451ZM9.77632 22.0283H6.78149C6.28679 22.0283 5.88573 21.6348 5.88573 21.1494C5.88573 20.664 6.28679 20.2705 6.78149 20.2705H9.77632C10.271 20.2705 10.6721 20.664 10.6721 21.1494C10.6721 21.6348 10.271 22.0283 9.77632 22.0283ZM10.3736 18.5186H6.78442C6.28972 18.5186 5.88866 18.125 5.88866 17.6396C5.88866 17.1543 6.28972 16.7607 6.78442 16.7607H10.3736C10.8683 16.7607 11.2693 17.1543 11.2693 17.6396C11.2693 18.125 10.8683 18.5186 10.3736 18.5186Z" fill="#97539C"/>
<path d="M21.1413 14.1797C16.696 14.1797 13.0794 17.7282 13.0794 22.0898C13.0794 26.4515 16.696 30 21.1413 30C25.5866 30 29.2032 26.4515 29.2032 22.0898C29.2032 17.7282 25.5866 14.1797 21.1413 14.1797ZM22.0399 25.4747V25.5583C22.0399 26.0437 21.6388 26.4372 21.1441 26.4372C20.6494 26.4372 20.2483 26.0437 20.2483 25.5583V25.5434C19.8471 25.4496 19.4748 25.2945 19.1796 25.105C18.7656 24.8392 18.6496 24.2946 18.9204 23.8883C19.1913 23.482 19.7464 23.3682 20.1604 23.634C20.527 23.8693 21.1314 23.9587 21.4284 23.8216C21.6209 23.7327 21.7698 23.543 21.7905 23.3603C21.8349 22.9712 21.2135 22.7541 20.8425 22.6103C20.281 22.3927 19.5822 22.1219 19.1765 21.4033C18.5983 20.3791 19.1048 19.0287 20.2483 18.5669V18.5227C20.2483 18.0373 20.6494 17.6437 21.1441 17.6437C21.6339 17.6437 22.0313 18.0296 22.0391 18.5084C22.3616 18.6073 22.6586 18.7655 22.8964 18.9807C23.2601 19.3098 23.2829 19.8658 22.9475 20.2226C22.6121 20.5795 22.0454 20.6019 21.6817 20.2728C21.5344 20.1394 21.0803 20.0856 20.8829 20.2156C20.7502 20.3031 20.6982 20.4709 20.7436 20.5514C20.9328 20.8865 21.9235 21.0013 22.6733 21.5746C24.2049 22.7457 23.672 24.8604 22.0399 25.4747Z" fill="#97539C"/>
</svg>
