<svg width="30" height="30" viewBox="0 0 30 30" fill="none" xmlns="http://www.w3.org/2000/svg">
<g clip-path="url(#clip0_5_285)">
<path d="M25.2938 7.10749C25.8337 5.61374 24.3862 4.16624 22.8925 4.70749L4.63625 11.31C3.1375 11.8525 2.95625 13.8975 4.335 14.6962L10.1625 18.07L15.3662 12.8662C15.602 12.6385 15.9178 12.5126 16.2455 12.5154C16.5732 12.5182 16.8868 12.6497 17.1185 12.8815C17.3503 13.1132 17.4817 13.4267 17.4846 13.7545C17.4874 14.0822 17.3614 14.398 17.1337 14.6337L11.93 19.8375L15.305 25.665C16.1025 27.0437 18.1475 26.8612 18.69 25.3637L25.2938 7.10749Z" fill="#D0122D"/>
</g>
<defs>
<clipPath id="clip0_5_285">
<rect width="30" height="30" fill="white"/>
</clipPath>
</defs>
</svg>
